# Blender v3.3.1 OBJ File: 'book1.blend'
# www.blender.org
mtllib book1.mtl
o 立方体
v -0.550000 -0.100000 0.380000
v -0.550000 0.100000 0.380000
v -0.550000 -0.100000 -0.380000
v -0.550000 0.100000 -0.380000
v 0.550000 -0.100000 0.380000
v 0.550000 0.100000 0.380000
v 0.550000 -0.100000 -0.380000
v 0.550000 0.100000 -0.380000
v -0.550000 0.046624 0.380000
v -0.550000 0.049905 -0.392467
v 0.550000 0.046624 -0.392467
v 0.550000 0.046624 0.380000
v -0.550000 -0.037506 -0.392467
v 0.550000 -0.040786 -0.393714
v 0.550000 -0.040786 0.380000
v -0.550000 -0.040786 0.380000
vt 0.558280 0.000000
vt 0.625000 0.000000
vt 0.625000 0.250000
vt 0.558280 0.250000
vt 0.558280 0.500000
vt 0.625000 0.500000
vt 0.625000 0.750000
vt 0.558280 0.750000
vt 0.625000 1.000000
vt 0.558280 1.000000
vt 0.449017 0.750000
vt 0.449017 1.000000
vt 0.449017 0.500000
vt 0.449017 0.000000
vt 0.449017 0.250000
vt 0.375000 0.000000
vt 0.375000 0.250000
vt 0.375000 0.500000
vt 0.375000 0.750000
vt 0.375000 1.000000
vt 0.125000 0.500000
vt 0.125000 0.750000
vt 0.875000 0.500000
vt 0.875000 0.750000
vn -1.0000 0.0000 0.0000
vn 1.0000 0.0000 0.0000
vn 0.0000 0.0000 1.0000
vn 0.0003 0.2343 -0.9722
vn 0.0000 -1.0000 0.0000
vn 0.0000 1.0000 0.0000
vn -0.0005 0.0071 -1.0000
vn -0.0009 -0.2103 -0.9776
usemtl base
s off
f 9/1/1 2/2/1 4/3/1 10/4/1
f 11/5/2 8/6/2 6/7/2 12/8/2
f 12/8/3 6/7/3 2/9/3 9/10/3
f 15/11/3 12/8/3 9/10/3 16/12/3
f 14/13/2 11/5/2 12/8/2 15/11/2
f 16/14/1 9/1/1 10/4/1 13/15/1
f 1/16/1 16/14/1 13/15/1 3/17/1
f 7/18/2 14/13/2 15/11/2 5/19/2
f 5/19/3 15/11/3 16/12/3 1/20/3
usemtl red
f 10/4/4 4/3/4 8/6/4 11/5/4
f 3/21/5 7/18/5 5/19/5 1/22/5
f 8/6/6 4/23/6 2/24/6 6/7/6
f 13/15/7 10/4/7 11/5/7 14/13/7
f 3/17/8 13/15/8 14/13/8 7/18/8
