# Blender v3.4.1 OBJ File: 'final_obj9_irregular_cube.blend'
# www.blender.org
mtllib final_obj9_irregular_cube.mtl
o Cube
v 0.526252 0.500000 -0.500000
v 0.526252 -0.500000 -0.500000
v -0.473748 0.500000 0.500000
v -0.473748 0.500000 -0.500000
v 0.207769 -0.500000 0.500000
v 0.526252 -0.500000 0.035365
v -0.473748 0.187479 0.500000
v -0.095865 -0.500000 0.500000
v -0.298435 -0.500000 -0.500000
v -0.473748 -0.181054 -0.500000
v 0.404264 0.101111 0.500000
v 0.301336 0.500000 0.500000
v 0.526252 0.036571 0.291253
v 0.526252 0.500000 0.054269
vt 0.681229 0.500000
vt 0.875000 0.500000
vt 0.875000 0.578130
vt 0.780529 0.750000
vt 0.704621 0.750000
vt 0.655497 0.599722
vt 0.625000 0.905529
vt 0.375000 0.956172
vt 0.375000 0.750000
vt 0.508841 0.750000
vt 0.625000 0.829621
vt 0.625000 0.171870
vt 0.625000 0.250000
vt 0.375000 0.250000
vt 0.375000 0.079737
vt 0.125000 0.500000
vt 0.375000 0.500000
vt 0.168828 0.750000
vt 0.125000 0.670263
vt 0.572813 0.615857
vt 0.513567 0.500000
vt 0.625000 0.443771
vt 0.000000 0.000000
vt 0.000000 0.000000
vt 0.000000 0.000000
vt 0.000000 0.000000
vt 0.000000 0.000000
vt 0.000000 0.000000
vt 0.000000 0.000000
vt 0.000000 0.000000
vt 0.000000 0.000000
vt 0.000000 0.000000
vn 0.0000 -0.0000 1.0000
vn -0.0000 -1.0000 -0.0000
vn -1.0000 -0.0000 0.0000
vn 0.0000 0.0000 -1.0000
vn 1.0000 -0.0000 0.0000
vn -0.0000 1.0000 0.0000
vn 0.7964 -0.2603 0.5459
vn -0.8628 -0.4743 0.1748
vn 0.8700 0.2245 0.4390
usemtl Material
s off
f 12/1/1 3/2/1 7/3/1 8/4/1 5/5/1 11/6/1
f 8/7/2 9/8/2 2/9/2 6/10/2 5/11/2
f 7/12/3 3/13/3 4/14/3 10/15/3
f 4/16/4 1/17/4 2/9/4 9/18/4 10/19/4
f 13/20/5 6/10/5 2/9/5 1/17/5 14/21/5
f 1/17/6 4/14/6 3/13/6 12/22/6 14/21/6
f 11/23/7 5/24/7 6/25/7 13/26/7
f 8/27/8 7/28/8 10/29/8 9/30/8
f 14/31/9 12/32/9 11/23/9 13/26/9
