# Blender v3.4.1 OBJ File: 'final_obj12_cube_extrude1.blend'
# www.blender.org
mtllib final_obj12_cube_extrude1.mtl
o Cube.001
v 0.300000 0.440000 -0.001403
v 0.300000 -0.440000 -0.001403
v 0.300000 0.440000 0.598597
v 0.300000 -0.440000 0.598597
v -0.300000 0.440000 -0.001403
v -0.300000 -0.440000 -0.001403
v -0.300000 0.440000 0.598597
v -0.300000 -0.440000 0.598597
v 0.548781 0.647059 -0.515790
v 0.548781 -0.647059 -0.515790
v 0.548781 0.647059 0.345748
v 0.548781 -0.647059 0.345748
v -0.548781 0.647059 -0.515790
v -0.548781 -0.647059 -0.515790
v -0.548781 0.647059 0.345748
v -0.548781 -0.647059 0.345748
vt 0.625000 0.500000
vt 0.875000 0.500000
vt 0.875000 0.750000
vt 0.625000 0.750000
vt 0.375000 0.750000
vt 0.625000 1.000000
vt 0.375000 1.000000
vt 0.375000 0.000000
vt 0.625000 0.000000
vt 0.625000 0.250000
vt 0.375000 0.250000
vt 0.125000 0.500000
vt 0.375000 0.500000
vt 0.125000 0.750000
vt 0.625000 0.500000
vt 0.875000 0.500000
vt 0.875000 0.750000
vt 0.625000 0.750000
vt 0.375000 0.750000
vt 0.625000 1.000000
vt 0.375000 1.000000
vt 0.375000 0.000000
vt 0.625000 0.000000
vt 0.625000 0.250000
vt 0.375000 0.250000
vt 0.125000 0.500000
vt 0.375000 0.500000
vt 0.125000 0.750000
vn 0.0000 1.0000 0.0000
vn 0.0000 0.0000 1.0000
vn -1.0000 0.0000 0.0000
vn 0.0000 -1.0000 0.0000
vn 1.0000 0.0000 0.0000
vn 0.0000 0.0000 -1.0000
usemtl Material.001
s off
f 1/1/1 5/2/1 7/3/1 3/4/1
f 4/5/2 3/4/2 7/6/2 8/7/2
f 8/8/3 7/9/3 5/10/3 6/11/3
f 6/12/4 2/13/4 4/5/4 8/14/4
f 2/13/5 1/1/5 3/4/5 4/5/5
f 6/11/6 5/10/6 1/1/6 2/13/6
usemtl Material
f 9/15/1 13/16/1 15/17/1 11/18/1
f 12/19/2 11/18/2 15/20/2 16/21/2
f 16/22/3 15/23/3 13/24/3 14/25/3
f 14/26/4 10/27/4 12/19/4 16/28/4
f 10/27/5 9/15/5 11/18/5 12/19/5
f 14/25/6 13/24/6 9/15/6 10/27/6
