# Blender v3.4.1 OBJ File: 'final_obj2_cross.blend'
# www.blender.org
mtllib final_obj2_cross.mtl
o Cube.001
v 0.370000 0.468207 0.420000
v 0.234808 0.715266 0.270000
v 0.234808 0.715266 -0.270000
v 0.612332 -0.123674 0.270000
v 0.612332 -0.123674 -0.270000
v 0.234808 -0.498852 0.270000
v 0.370000 0.468207 -0.420000
v 0.234808 -0.498852 -0.270000
v -0.234808 0.715266 0.270000
v 0.370000 -0.251793 0.420000
v -0.234808 0.715266 -0.270000
v -0.611512 -0.125794 0.270000
v -0.234808 -0.498852 0.270000
v 0.370000 -0.251793 -0.420000
v -0.234808 -0.498852 -0.270000
v -0.611512 -0.125793 -0.270000
v -0.370000 0.468207 0.420000
v 0.611512 0.342207 0.270000
v -0.370000 0.468207 -0.420000
v 0.611512 0.342207 -0.270000
v -0.612332 0.340088 0.270000
v -0.370000 -0.251793 0.420000
v -0.370000 -0.251793 -0.420000
v -0.612332 0.340088 -0.270000
v -0.370000 -0.125375 -0.270000
v -0.370000 -0.125375 0.270000
v -0.370000 0.340508 -0.270000
v -0.370000 0.340508 0.270000
v 0.370000 0.341789 -0.270000
v 0.370000 0.341789 0.270000
v 0.370000 -0.124094 -0.270000
v 0.370000 -0.124094 0.270000
v -0.234808 -0.251793 0.270000
v 0.234808 -0.251793 0.270000
v -0.234808 -0.251793 -0.270000
v 0.234808 -0.251793 -0.270000
v 0.234808 0.468207 0.270000
v -0.234808 0.468207 0.270000
v -0.234808 0.468207 -0.270000
v 0.234808 0.468207 -0.270000
vt 0.625000 0.500000
vt 0.875000 0.500000
vt 0.875000 0.750000
vt 0.625000 0.750000
vt 0.419643 0.795673
vt 0.375000 0.750000
vt 0.625000 1.000000
vt 0.375000 1.000000
vt 0.419643 0.954327
vt 0.580357 0.954327
vt 0.580357 0.795673
vt 0.419643 0.043895
vt 0.375000 0.000000
vt 0.625000 0.000000
vt 0.580357 0.043895
vt 0.580357 0.205660
vt 0.625000 0.250000
vt 0.375000 0.250000
vt 0.419643 0.205660
vt 0.125000 0.500000
vt 0.375000 0.500000
vt 0.125000 0.750000
vt 0.419643 0.543895
vt 0.580357 0.543895
vt 0.580357 0.705660
vt 0.419643 0.705660
vt 0.419643 0.454327
vt 0.580357 0.454327
vt 0.580357 0.295673
vt 0.419643 0.295673
vt 0.875000 0.700498
vt 0.875000 0.750000
vt 0.625000 0.750000
vt 0.625000 0.700665
vt 0.625000 0.549502
vt 0.625000 0.500000
vt 0.875000 0.500000
vt 0.875000 0.549335
vt 0.375000 0.750000
vt 0.625000 1.000000
vt 0.375000 1.000000
vt 0.625000 0.250000
vt 0.375000 0.250000
vt 0.375000 0.200666
vt 0.625000 0.200666
vt 0.375000 0.000000
vt 0.625000 0.000000
vt 0.625000 0.049501
vt 0.375000 0.049501
vt 0.125000 0.750000
vt 0.125000 0.700498
vt 0.375000 0.700665
vt 0.125000 0.500000
vt 0.375000 0.500000
vt 0.375000 0.549502
vt 0.125000 0.549335
vt 0.875000 0.699128
vt 0.875000 0.750000
vt 0.625000 0.750000
vt 0.625000 0.699128
vt 0.625000 0.550872
vt 0.625000 0.500000
vt 0.875000 0.500000
vt 0.875000 0.550872
vt 0.375000 0.750000
vt 0.625000 1.000000
vt 0.375000 1.000000
vt 0.625000 0.250000
vt 0.375000 0.250000
vt 0.375000 0.199128
vt 0.625000 0.199128
vt 0.375000 0.000000
vt 0.625000 0.000000
vt 0.625000 0.050872
vt 0.375000 0.050872
vt 0.125000 0.750000
vt 0.125000 0.699128
vt 0.375000 0.699128
vt 0.125000 0.550872
vt 0.125000 0.500000
vt 0.375000 0.500000
vt 0.375000 0.550872
vn 0.0000 -0.0000 1.0000
vn 0.0000 -1.0000 -0.0000
vn -1.0000 -0.0000 0.0000
vn 0.0000 0.0000 -1.0000
vn 1.0000 0.0000 0.0000
vn 0.0000 1.0000 0.0000
vn -1.0000 -0.0018 -0.0000
vn -0.0017 1.0000 0.0000
vn 0.0017 -1.0000 -0.0000
vn 1.0000 0.0018 0.0000
usemtl Material.001
s off
f 1/1/1 17/2/1 22/3/1 10/4/1
f 36/5/2 14/6/2 10/4/2 22/7/2 23/8/2 35/9/2 33/10/2 34/11/2
f 35/9/2 23/8/2 14/6/2 36/5/2
f 25/12/3 23/13/3 22/14/3 26/15/3
f 28/16/3 26/15/3 22/14/3 17/17/3 19/18/3 23/13/3 25/12/3 27/19/3
f 19/20/4 7/21/4 14/6/4 23/22/4
f 29/23/5 7/21/5 1/1/5 30/24/5
f 32/25/5 30/24/5 1/1/5 10/4/5 14/6/5 7/21/5 29/23/5 31/26/5
f 19/18/6 17/17/6 1/1/6 7/21/6 40/27/6 37/28/6 38/29/6 39/30/6
f 7/21/6 19/18/6 39/30/6 40/27/6
f 28/31/1 21/32/1 12/33/1 26/34/1
f 32/35/1 4/36/1 18/37/1 30/38/1
f 16/39/7 12/33/7 21/40/7 24/41/7
f 18/42/8 20/43/8 29/44/8 30/45/8
f 24/46/8 21/47/8 28/48/8 27/49/8
f 16/39/4 24/50/4 27/51/4 25/52/4
f 20/53/4 5/54/4 31/55/4 29/56/4
f 12/33/9 16/39/9 25/52/9 26/34/9
f 5/54/9 4/36/9 32/35/9 31/55/9
f 20/43/10 18/42/10 4/36/10 5/54/10
f 33/57/1 13/58/1 6/59/1 34/60/1
f 37/61/1 2/62/1 9/63/1 38/64/1
f 8/65/2 6/59/2 13/66/2 15/67/2
f 9/68/3 11/69/3 39/70/3 38/71/3
f 15/72/3 13/73/3 33/74/3 35/75/3
f 8/65/4 15/76/4 35/77/4 36/78/4
f 39/79/4 11/80/4 3/81/4 40/82/4
f 6/59/5 8/65/5 36/78/5 34/60/5
f 3/81/5 2/62/5 37/61/5 40/82/5
f 11/69/6 9/68/6 2/62/6 3/81/6
