# Blender 3.3.1
# www.blender.org
mtllib obj3_prism.mtl
o 立方体
v -0.493041 -0.264193 0.529890
v -0.168681 0.271144 0.175305
v -0.493041 -0.264193 -0.470110
v -0.164091 0.273548 -0.185777
v 0.506959 -0.264193 0.529890
v 0.168424 0.268195 0.180992
v 0.506959 -0.264193 -0.470110
v 0.172993 0.269168 -0.185408
vn -0.8542 0.5199 -0.0020
vn 0.0018 0.4692 -0.8831
vn 0.8456 0.5338 0.0032
vn -0.0023 0.5502 0.8351
vn -0.0000 -1.0000 -0.0000
vn 0.0108 0.9999 0.0048
vt 0.375000 0.000000
vt 0.375000 1.000000
vt 0.125000 0.750000
vt 0.625000 0.000000
vt 0.625000 1.000000
vt 0.875000 0.750000
vt 0.375000 0.250000
vt 0.125000 0.500000
vt 0.625000 0.250000
vt 0.875000 0.500000
vt 0.375000 0.750000
vt 0.625000 0.750000
vt 0.375000 0.500000
vt 0.625000 0.500000
s 0
f 1/1/1 2/4/1 4/9/1 3/7/1
f 3/7/2 4/9/2 8/14/2 7/13/2
f 7/13/3 8/14/3 6/12/3 5/11/3
f 5/11/4 6/12/4 2/5/4 1/2/4
f 3/8/5 7/13/5 5/11/5 1/3/5
f 8/14/6 4/10/6 2/6/6 6/12/6
