# Blender v3.4.1 OBJ File: 'final_obj11_cube_ir2.blend'
# www.blender.org
mtllib final_obj11_cube_ir2.mtl
o Cube
v -0.240515 0.202912 0.142907
v 0.600000 -0.600000 -0.600000
v 0.600000 0.600000 0.600000
v 0.600000 -0.600000 0.600000
v -0.600000 0.600000 -0.600000
v -0.600000 -0.600000 -0.600000
v -0.600000 0.600000 0.600000
v 0.067574 0.023981 -0.141605
v 0.067574 0.600000 -0.141605
v -0.600000 0.202912 0.600000
v 0.067574 0.600000 -0.600000
v -0.600000 0.202912 0.249375
v -0.600000 0.202912 0.269144
v -0.600000 0.202912 0.142907
v -0.240515 -0.600000 0.249375
v -0.240515 -0.600000 0.142907
v -0.240515 0.202912 0.600000
v -0.600000 -0.600000 0.142907
v 0.600000 0.600000 -0.141605
v -0.285577 -0.600000 0.142907
v 0.600000 0.023981 -0.141605
v -0.240515 -0.600000 0.600000
v -0.240515 -0.600000 0.269144
v -0.600000 0.202912 0.502391
v -0.600000 -0.156573 0.142907
v 0.600000 0.023981 -0.600000
v -0.498839 -0.055412 0.142907
v -0.478540 0.202912 0.380931
v 0.067574 0.023981 -0.600000
vt 0.735922 0.595499
vt 0.735922 0.500000
vt 0.875000 0.500000
vt 0.875000 0.750000
vt 0.625000 0.750000
vt 0.625000 0.595499
vt 0.542273 0.925107
vt 0.375000 0.925107
vt 0.375000 0.750000
vt 0.625000 1.000000
vt 0.542273 1.000000
vt 0.625000 0.000000
vt 0.625000 0.250000
vt 0.375000 0.250000
vt 0.375000 0.095228
vt 0.467381 0.095228
vt 0.542273 0.095228
vt 0.542273 0.073047
vt 0.542273 0.068928
vt 0.542273 0.020335
vt 0.542273 0.000000
vt 0.125000 0.654772
vt 0.125000 0.500000
vt 0.375000 0.500000
vt 0.199893 0.750000
vt 0.199893 0.681072
vt 0.199893 0.676953
vt 0.199893 0.654772
vt 0.190505 0.654772
vt 0.504996 0.595499
vt 0.504996 0.500000
vt 0.504996 0.389078
vt 0.625000 0.389078
vt 0.375000 0.889078
vt 0.375000 1.000000
vt 0.495004 1.000000
vt 0.495004 0.889078
vt 0.495004 0.095499
vt 0.495004 0.000000
vt 0.375000 0.000000
vt 0.375000 0.095499
vt 0.125000 0.654501
vt 0.125000 0.750000
vt 0.235922 0.750000
vt 0.235922 0.654501
vt 0.699893 0.526299
vt 0.674589 0.549589
vt 0.699893 0.574893
vt 0.699893 0.522181
vt 0.699893 0.500000
vt 0.625000 0.500000
vt 0.625000 0.595228
vt 0.699893 0.595228
vt 0.457727 0.522181
vt 0.457727 0.526299
vt 0.457727 0.595228
vt 0.457727 0.500000
vt 0.457727 0.490612
vt 0.625000 0.425107
vt 0.571183 0.446183
vt 0.550107 0.425107
vt 0.457727 0.425107
vn 0.0000 1.0000 0.0000
vn 0.0000 0.0000 1.0000
vn -1.0000 0.0000 0.0000
vn 0.0000 -1.0000 -0.0000
vn 1.0000 0.0000 0.0000
vn 0.0000 0.0000 -1.0000
usemtl Material
s off
f 9/1/1 11/2/1 5/3/1 7/4/1 3/5/1 19/6/1
f 17/7/2 22/8/2 4/9/2 3/5/2 7/10/2 10/11/2
f 7/12/3 5/13/3 6/14/3 18/15/3 25/16/3 14/17/3 12/18/3 13/19/3 24/20/3 10/21/3
f 18/22/4 6/23/4 2/24/4 4/9/4 22/25/4 23/26/4 15/27/4 16/28/4 20/29/4
f 21/30/5 19/6/5 3/5/5 4/9/5 2/24/5 26/31/5
f 29/32/6 26/31/6 2/24/6 6/14/6 5/13/6 11/33/6
f 21/34/6 8/35/6 9/36/6 19/37/6
f 11/38/5 9/39/5 8/40/5 29/41/5
f 29/42/1 8/43/1 21/44/1 26/45/1
f 13/46/4 28/47/4 24/48/4
f 12/49/4 14/50/4 1/51/4 17/52/4 10/53/4 24/48/4 28/47/4 13/46/4
f 15/54/3 23/55/3 22/56/3 17/52/3 1/51/3 16/57/3
f 20/58/2 16/57/2 1/51/2 14/59/2 27/60/2 25/61/2 18/62/2
f 25/61/2 27/60/2 14/59/2
