# Blender 3.4.1
# www.blender.org
mtllib final_obj4_t.mtl
o Cube
v -0.240800 0.250000 0.586617
v 0.560000 0.250000 0.230000
v 0.240800 0.250000 0.586617
v 0.560000 0.250000 -0.230000
v -0.240800 -0.250000 0.586617
v 0.560000 -0.250000 0.230000
v 0.240800 -0.250000 0.586617
v 0.560000 -0.250000 -0.230000
v -0.240800 0.250000 0.041036
v -0.560000 0.250000 0.230000
v 0.240800 0.250000 0.041036
v -0.560000 0.250000 -0.230000
v -0.240800 -0.250000 0.041036
v -0.560000 -0.250000 0.230000
v 0.240800 -0.250000 0.041036
v -0.560000 -0.250000 -0.230000
v 0.240800 0.250000 0.230000
v -0.240800 0.250000 0.230000
v -0.240800 -0.250000 0.230000
v 0.240800 -0.250000 0.230000
v -0.240800 -0.250000 0.098900
v 0.240800 0.250000 0.098900
v -0.203312 -0.250000 0.083503
v 0.203312 0.250000 0.083503
vn -0.0000 -0.0000 1.0000
vn -0.0000 -1.0000 -0.0000
vn -1.0000 -0.0000 -0.0000
vn -0.0000 -0.0000 -1.0000
vn 1.0000 -0.0000 -0.0000
vn -0.0000 1.0000 -0.0000
vt 0.375000 0.500000
vt 0.625000 0.500000
vt 0.625000 0.500000
vt 0.125000 0.500000
vt 0.375000 0.500000
vt 0.375000 0.500000
vt 0.625000 0.750000
vt 0.375000 0.750000
vt 0.625000 0.750000
vt 0.125000 0.750000
vt 0.375000 0.750000
vt 0.375000 0.750000
vt 0.522302 0.321250
vt 0.875000 0.500000
vt 0.625000 0.250000
vt 0.522302 0.428750
vt 0.125000 0.500000
vt 0.375000 0.250000
vt 0.522302 0.928750
vt 0.875000 0.750000
vt 0.625000 1.000000
vt 0.625000 0.000000
vt 0.522302 0.821250
vt 0.375000 1.000000
vt 0.375000 0.000000
vt 0.125000 0.750000
vt 0.696250 0.500000
vt 0.625000 0.428750
vt 0.125000 0.500000
vt 0.375000 0.336589
vt 0.803750 0.500000
vt 0.625000 0.321250
vt 0.625000 0.500000
vt 0.625000 0.336589
vt 0.803750 0.750000
vt 0.625000 0.928750
vt 0.625000 0.750000
vt 0.625000 0.913411
vt 0.696250 0.750000
vt 0.625000 0.821250
vt 0.375000 0.913411
vt 0.125000 0.750000
vt 0.553750 0.928750
vt 0.553750 0.428750
vt 0.545382 0.920382
vt 0.545382 0.420382
s 0
usemtl Material
f 10/14/1 14/20/1 19/35/1 18/31/1
f 20/39/1 6/9/1 2/3/1 17/27/1
f 21/43/2 19/36/2 14/21/2 16/24/2 8/12/2 6/9/2 20/40/2 15/23/2 13/19/2
f 13/19/2 15/23/2 20/40/2 19/36/2 21/43/2 23/45/2
f 21/43/2 13/19/2 23/45/2
f 16/25/3 14/22/3 10/15/3 12/18/3
f 12/17/4 4/6/4 8/12/4 16/26/4
f 4/6/5 2/3/5 6/9/5 8/12/5
f 2/3/6 4/6/6 12/18/6 10/15/6 18/32/6 9/13/6 11/16/6 22/44/6 17/28/6
f 11/16/6 24/46/6 22/44/6
f 9/13/6 18/32/6 17/28/6 22/44/6 24/46/6 11/16/6
f 19/37/3 5/7/3 1/2/3 18/33/3
f 20/41/2 7/11/2 5/7/2 19/38/2
f 17/29/5 3/4/5 7/10/5 20/42/5
f 3/5/1 1/1/1 5/8/1 7/11/1
f 1/2/6 3/5/6 17/30/6 18/34/6
